<?xml version="1.0" encoding="utf-8"?>
<!-- Generator: Adobe Illustrator 24.0.2, SVG Export Plug-In . SVG Version: 6.00 Build 0)  -->
<svg version="1.1" xmlns="http://www.w3.org/2000/svg" xmlns:xlink="http://www.w3.org/1999/xlink" x="0px" y="0px"
	 viewBox="0 0 600 600" style="enable-background:new 0 0 600 600;" xml:space="preserve">
<style type="text/css">
	.st0{fill:#3BB99B;}
	.st1{stroke:#414042;stroke-miterlimit:10;}
	.st2{stroke:#000000;stroke-width:5;stroke-miterlimit:10;}
	.st3{fill:#CA4B28;}
	.st4{fill:#D05527;}
	.st5{fill:#B74426;}
	.st6{fill:#CD5028;}
	.st7{fill:#FFFFFF;}
	.st8{fill:#614335;}
	.st9{fill:#F5F7F6;}
	.st10{fill:#B84526;}
	.st11{fill:#8951A0;}
	.st12{fill:none;stroke:#000000;stroke-width:3;stroke-miterlimit:10;}
	.st13{fill:none;stroke:#B84526;stroke-width:4;stroke-miterlimit:10;}
	.st14{fill:none;stroke:#000000;stroke-width:5;stroke-miterlimit:10;}
	.st15{fill:#332E2F;}
	.st16{opacity:0.5;fill:none;stroke:#414042;stroke-width:2;stroke-miterlimit:10;}
	.st17{opacity:0.49;fill:none;stroke:#414042;stroke-width:2;stroke-miterlimit:10;}
	.st18{fill:#414042;}
	.st19{fill:none;stroke:#414042;stroke-width:10;stroke-miterlimit:10;}
</style>
<g id="Layer_1">
	<circle class="st0" cx="300" cy="300" r="276"/>
</g>
<g id="Layer_2">
	<circle class="st1" cx="55.56" cy="153.85" r="12.53"/>
	<path class="st2" d="M329.69,430.09h-85.62c-10.39,0-18.82-8.43-18.82-18.82v-6.32c0-10.39,10.29-24.75,18.82-18.82
		c21.14,14.7,55.83,14.7,85.62,0c9.32-4.6,18.82,8.43,18.82,18.82v6.32C348.51,421.67,340.09,430.09,329.69,430.09z"/>
	<circle cx="439.6" cy="279.93" r="15.99"/>
	<circle cx="455.58" cy="198.96" r="11.13"/>
	<circle cx="464.41" cy="225.11" r="14.93"/>
	<circle cx="458" cy="244.22" r="21.33"/>
	<circle cx="459.71" cy="207.11" r="10.65"/>
	<ellipse cx="450.78" cy="175.64" rx="30.38" ry="19.01"/>
	<ellipse cx="443.24" cy="195.58" rx="10.86" ry="14.6"/>
	<circle cx="149.36" cy="306.2" r="20.36"/>
	<ellipse cx="420.56" cy="180.98" rx="15.22" ry="12.67"/>
	<ellipse cx="115.94" cy="194.4" rx="17.82" ry="11.62"/>
	<path class="st3" d="M412.94,275.24l4.01,0.81c13.8,2.81,27.26-6.11,30.07-19.91l7.18-35.33c2.81-13.8-6.11-27.26-19.91-30.07
		l-4.01-0.81c-13.8-2.81-27.26,6.11-30.07,19.91l-7.18,35.33C390.22,258.97,399.14,272.44,412.94,275.24z"/>
	<path class="st3" d="M156.4,275.24l-4.01,0.81c-13.8,2.81-27.26-6.11-30.07-19.91l-7.18-35.33c-2.81-13.8,6.11-27.26,19.91-30.07
		l4.01-0.81c13.8-2.81,27.26,6.11,30.07,19.91l7.18,35.33C179.11,258.97,170.2,272.44,156.4,275.24z"/>
	<path class="st4" d="M409.01,271.35l7.76,1.58c13.8,2.81,27.26-6.11,30.07-19.91l6.97-34.3c2.81-13.8-6.11-27.26-19.91-30.07
		l-7.76-1.58c-13.8-2.81-27.26,6.11-30.07,19.91l-6.97,34.3C386.3,255.08,395.21,268.54,409.01,271.35z"/>
	<path class="st5" d="M415.64,257.67L415.64,257.67c-9.66-2.29-15.34-13.22-4.12-22.89l3.31-13.96
		c-5.91-12.72,4.07-19.94,13.73-17.65l0,0c9.66,2.29,15.34,13.22,12.69,24.41l-3.31,13.96C435.28,252.74,425.3,259.96,415.64,257.67
		z"/>
	<path class="st4" d="M159.53,270.87l-7.76,1.58c-13.8,2.81-27.26-6.11-30.07-19.91l-6.97-34.3c-2.81-13.8,6.11-27.26,19.91-30.07
		l7.76-1.58c13.8-2.81,27.26,6.11,30.07,19.91l6.97,34.3C182.24,254.6,173.33,268.06,159.53,270.87z"/>
	<path class="st5" d="M155.24,257.67L155.24,257.67c9.66-2.29,15.34-13.22,4.12-22.89l-3.31-13.96
		c5.91-12.72-4.07-19.94-13.73-17.65l0,0c-9.66,2.29-15.34,13.22-12.69,24.41l3.31,13.96C135.6,252.74,145.58,259.96,155.24,257.67z
		"/>
	<path class="st4" d="M319.73,463.84h-62.95c-6.31,0-11.42-5.11-11.42-11.42v-90c0-6.31,5.11-11.42,11.42-11.42h62.95
		c6.31,0,11.42,5.11,11.42,11.42v90C331.15,458.73,326.04,463.84,319.73,463.84z"/>
	<path class="st6" d="M315,369.75h-55c-56.89,0-103-46.11-103-103v-49c0-56.89,46.11-103,103-103h55c56.89,0,103,46.11,103,103v49
		C418,323.64,371.89,369.75,315,369.75z"/>
	<path class="st6" d="M326.1,380.36h-75.69c-2.79,0-5.05-2.26-5.05-5.05v-19.26c0-2.79,2.26-5.05,5.05-5.05h75.69
		c2.79,0,5.05,2.26,5.05,5.05v19.26C331.15,378.1,328.89,380.36,326.1,380.36z"/>
	<path class="st4" d="M315,364h-55c-56.89,0-103-46.11-103-103v-49c0-56.89,46.11-103,103-103h55c56.89,0,103,46.11,103,103v49
		C418,317.89,371.89,364,315,364z"/>
	<path class="st7" d="M228.08,270.92h-4.32c-20.88,0-37.8-16.92-37.8-37.8v-14.04c0-20.88,16.92-37.8,37.8-37.8h4.32
		c20.88,0,37.8,16.92,37.8,37.8v14.04C265.88,254,248.96,270.92,228.08,270.92z"/>
	<path class="st7" d="M350.01,270.92h-4.32c-20.88,0-37.8-16.92-37.8-37.8v-14.04c0-20.88,16.92-37.8,37.8-37.8h4.32
		c20.88,0,37.8,16.92,37.8,37.8v14.04C387.81,254,370.89,270.92,350.01,270.92z"/>
	<path class="st8" d="M228.09,252.2L228.09,252.2c-13.33,0-24.13-10.8-24.13-24.13v-5.74c0-13.33,10.8-24.13,24.13-24.13h0
		c13.33,0,24.13,10.8,24.13,24.13v5.74C252.22,241.4,241.42,252.2,228.09,252.2z"/>
	<path class="st8" d="M344.36,252.2L344.36,252.2c-13.33,0-24.13-10.8-24.13-24.13v-5.74c0-13.33,10.8-24.13,24.13-24.13h0
		c13.33,0,24.13,10.8,24.13,24.13v5.74C368.49,241.4,357.69,252.2,344.36,252.2z"/>
	<circle cx="228.09" cy="226.1" r="12.49"/>
	<circle cx="342.09" cy="226.46" r="12.49"/>
	<circle class="st9" cx="238.34" cy="215.3" r="7.02"/>
	<circle class="st9" cx="349.18" cy="215.3" r="7.02"/>
	<circle class="st9" cx="242.53" cy="227.05" r="1.95"/>
	<circle class="st9" cx="356.2" cy="226.32" r="1.95"/>
	<path class="st10" d="M300.78,277.97l-9.96,4.92c-2.72,1.35-5.92,1.35-8.64,0l-9.96-4.92c-3.32-1.64-5.43-5.03-5.43-8.74v-7.37
		c0-3.71,2.1-7.09,5.43-8.74c0,0,7.47-3.69,9.96-4.92c2.72-1.35,5.92-1.35,8.64,0c2.49,1.23,9.96,4.92,9.96,4.92
		c3.32,1.64,5.43,5.03,5.43,8.74v7.37C306.21,272.94,304.1,276.33,300.78,277.97z"/>
	<polygon class="st11" points="299.58,261.64 296.8,262.28 294.86,260.18 295.7,257.46 298.48,256.82 300.42,258.92 	"/>
	<polygon class="st11" points="152.14,266.98 149.44,262.66 144.38,263.23 142.02,268.11 144.72,272.43 149.78,271.87 	"/>
	<polygon class="st11" points="428.68,266.98 425.97,262.66 420.91,263.23 418.55,268.11 421.25,272.43 426.32,271.87 	"/>
	<polygon class="st11" points="138.53,258.14 135.53,254.43 130.76,254.38 128.99,258.05 131.99,261.76 136.76,261.8 	"/>
	<polygon class="st11" points="440.24,258.14 437.24,254.43 432.47,254.38 430.7,258.05 433.7,261.76 438.47,261.8 	"/>
	<polygon class="st11" points="145.36,234.09 142.37,230.38 137.6,230.33 135.83,234 138.82,237.71 143.59,237.75 	"/>
	<polygon class="st11" points="436.28,233.05 433.28,229.34 428.51,229.29 426.74,232.95 429.74,236.66 434.51,236.71 	"/>
	<path class="st12" d="M299.11,229.57c0.2-11.89-23.65-12.29-23.86-0.41"/>
	<path class="st13" d="M257.23,272.02c-15.39,17.78-73.82,16.64-90.96,0.73c-15.9-14.76-24.58-72.05-10.77-88.98
		c18.39-22.55,91.87-21.37,112.35-0.91C283.26,198.26,271.54,255.49,257.23,272.02z"/>
	<path class="st14" d="M225.92,295.66c0,35.81,121.93,35.81,121.93,0"/>
	<path class="st14" d="M258.04,267.9c-15.64,17.27-75,16.18-92.41,0.75c-16.15-14.32-24.95-69.94-10.91-86.39
		c18.69-21.9,93.35-20.78,114.14-0.92C284.5,196.29,272.57,251.85,258.04,267.9z"/>
	<path class="st13" d="M408.39,272.75c-15.28,17.9-73.27,16.75-90.29,0.73c-15.78-14.86-24.41-72.54-10.7-89.59
		c18.25-22.7,91.2-21.51,111.52-0.9C434.22,198.5,422.59,256.12,408.39,272.75z"/>
	<path class="st14" d="M409.54,268.93c-15.64,17.27-75,16.18-92.41,0.75c-16.15-14.32-24.95-69.94-10.91-86.39
		c18.69-21.9,93.35-20.78,114.14-0.92C436.01,197.32,424.08,252.88,409.54,268.93z"/>
	<ellipse cx="192.08" cy="126.56" rx="30.6" ry="24.84"/>
	<ellipse cx="159.86" cy="155.36" rx="26.1" ry="21.96"/>
	<ellipse cx="157.08" cy="190.04" rx="14.32" ry="12.72"/>
	<ellipse cx="139.48" cy="175.76" rx="17.6" ry="14.28"/>
	<ellipse cx="130.2" cy="156.67" rx="15.52" ry="10.53"/>
	<circle cx="137.18" cy="138.98" r="12.42"/>
	<ellipse cx="154.29" cy="126.87" rx="17.11" ry="12.11"/>
	<ellipse cx="166.08" cy="115.76" rx="9.08" ry="11.16"/>
	<ellipse cx="186.24" cy="101.76" rx="14.84" ry="7.24"/>
	<ellipse cx="216.38" cy="101.9" rx="9.54" ry="13.86"/>
	<ellipse cx="191" cy="153.58" rx="15.84" ry="11.54"/>
	<ellipse cx="207.38" cy="96.32" rx="15.3" ry="8.28"/>
	<ellipse cx="228.67" cy="119.76" rx="16.69" ry="10.76"/>
	<circle cx="317.73" cy="106.77" r="5.05"/>
	<ellipse cx="343.87" cy="76.16" rx="14.27" ry="11.88"/>
	<circle cx="329.3" cy="108.24" r="6.52"/>
	<circle cx="307.09" cy="108.24" r="6.52"/>
	<circle cx="313.22" cy="95.05" r="7.01"/>
	<circle cx="327.39" cy="99.34" r="9.66"/>
	<circle cx="323.68" cy="86.24" r="10.08"/>
	<ellipse cx="347.26" cy="97.24" rx="16.1" ry="11"/>
	<ellipse cx="337.51" cy="86.7" rx="6.36" ry="10.54"/>
	<ellipse cx="355.32" cy="119" rx="13.17" ry="14.4"/>
	<ellipse cx="337.51" cy="108.24" rx="13.17" ry="14.4"/>
	<ellipse cx="371.31" cy="126.92" rx="13.17" ry="14.4"/>
	<circle cx="169.72" cy="96.28" r="8.24"/>
	<ellipse cx="149.33" cy="107.05" rx="12.15" ry="7.71"/>
	<ellipse cx="171.4" cy="104.6" rx="12.15" ry="7.71"/>
	<circle cx="135.74" cy="115.58" r="13.86"/>
	<circle cx="152.09" cy="113.25" r="11.49"/>
	<circle cx="236.81" cy="105.63" r="14.13"/>
	<ellipse cx="225.66" cy="86.13" rx="18.82" ry="13.21"/>
	<circle cx="198.94" cy="79.67" r="15.39"/>
	<ellipse cx="167.42" cy="84.44" rx="24.66" ry="17.28"/>
	<circle cx="189.56" cy="102.24" r="14.4"/>
	<ellipse cx="148.14" cy="95.96" rx="17.94" ry="19.8"/>
	<ellipse cx="219.08" cy="66.57" rx="15.12" ry="13.09"/>
	<circle cx="198.23" cy="64.43" r="18.15"/>
	<ellipse cx="162.92" cy="62.12" rx="29.16" ry="22.32"/>
	<ellipse cx="142.2" cy="97.71" rx="27.52" ry="18.05"/>
	<circle cx="138.53" cy="91.01" r="28.89"/>
	<circle cx="121.92" cy="140.44" r="23.8"/>
	<ellipse cx="115.04" cy="113.98" rx="25.56" ry="20.15"/>
	<ellipse cx="115.04" cy="167.69" rx="25.56" ry="20.15"/>
	<circle cx="229.6" cy="139.65" r="17.02"/>
	<circle cx="215.1" cy="153.67" r="14.02"/>
	<circle cx="195.2" cy="168.31" r="11.64"/>
	<ellipse cx="175.67" cy="181.1" rx="16.41" ry="12.78"/>
	<ellipse cx="148.8" cy="205.82" rx="8.2" ry="11.94"/>
	<ellipse cx="146.56" cy="213.13" rx="16.36" ry="7.31"/>
	<ellipse cx="133.76" cy="193.65" rx="9" ry="12.37"/>
	<circle cx="94.34" cy="189.26" r="13.5"/>
	<circle cx="90.17" cy="162.23" r="15.09"/>
	<ellipse cx="84.98" cy="143.57" rx="22.86" ry="13.05"/>
	<circle cx="95.91" cy="110.41" r="23.71"/>
	<circle cx="108.93" cy="85.17" r="28.09"/>
	<ellipse cx="141.01" cy="56.36" rx="25.07" ry="16.56"/>
	<circle cx="203.12" cy="50.72" r="19.56"/>
	<ellipse cx="235.01" cy="48.44" rx="15.93" ry="8.64"/>
	<ellipse cx="232.51" cy="77.85" rx="34.28" ry="21.49"/>
	<ellipse cx="261.02" cy="95.03" rx="15.66" ry="10.59"/>
	<ellipse cx="249.19" cy="114.4" rx="16.69" ry="12.16"/>
	<circle cx="271.19" cy="89.98" r="17.06"/>
	<ellipse cx="280.8" cy="96.34" rx="19.77" ry="23.42"/>
	<ellipse cx="300.93" cy="102.01" rx="12.67" ry="10.51"/>
	<ellipse transform="matrix(0.9938 -0.1109 0.1109 0.9938 -7.3425 34.6578)" cx="307.74" cy="83.3" rx="13.02" ry="15.94"/>
	<ellipse cx="262.61" cy="68.39" rx="24.27" ry="14.91"/>
	<circle cx="248.02" cy="47.76" r="13"/>
	<ellipse cx="377.9" cy="131.98" rx="6.58" ry="9.34"/>
	<ellipse cx="391.57" cy="145.19" rx="13.77" ry="6.21"/>
	<circle cx="387.2" cy="131.65" r="15.89"/>
	<ellipse cx="409.98" cy="157.37" rx="25.5" ry="18.39"/>
	<circle cx="405.93" cy="133.03" r="8.29"/>
	<ellipse cx="381.27" cy="109.17" rx="12.77" ry="9.83"/>
	<circle cx="367.24" cy="104.15" r="9.1"/>
	<ellipse cx="359.28" cy="88.45" rx="12.03" ry="8.79"/>
	<ellipse cx="361" cy="71.14" rx="10.32" ry="6.71"/>
	<circle cx="368.88" cy="51.68" r="5.4"/>
	<ellipse cx="375.34" cy="79.59" rx="11.86" ry="8.45"/>
	<ellipse cx="361" cy="83.77" rx="10.32" ry="5.92"/>
	<ellipse cx="382.43" cy="88.28" rx="20.66" ry="8.61"/>
	<ellipse cx="397.74" cy="107.03" rx="16.48" ry="11.97"/>
	<ellipse cx="376.34" cy="101.4" rx="16.48" ry="11.97"/>
	<ellipse cx="315.21" cy="95.96" rx="16.48" ry="11.97"/>
	<ellipse cx="261.02" cy="97.71" rx="16.48" ry="11.97"/>
	<circle cx="220.27" cy="24.44" r="8.4"/>
	<circle cx="59.74" cy="104.88" r="5.54"/>
	<circle cx="63.87" cy="130.7" r="4.14"/>
	<circle cx="181.75" cy="32.96" r="1.8"/>
	<ellipse cx="416.88" cy="128.51" rx="18.59" ry="22.89"/>
	<ellipse cx="409.55" cy="93.99" rx="11.91" ry="8.25"/>
	<ellipse cx="420.4" cy="101.66" rx="15.07" ry="10.16"/>
	<circle cx="435.77" cy="112.89" r="6.11"/>
	<circle cx="396.57" cy="121.28" r="8.76"/>
	<ellipse cx="408.52" cy="98.33" rx="27.25" ry="14.56"/>
	<circle cx="446.91" cy="130.22" r="23.45"/>
	<ellipse cx="439.98" cy="155.63" rx="19.58" ry="12.06"/>
	<ellipse cx="423.3" cy="108.21" rx="9.08" ry="3.61"/>
	<ellipse cx="56.42" cy="165.68" rx="11.58" ry="14.28"/>
	<ellipse cx="72.95" cy="166.81" rx="16.53" ry="13.14"/>
	<circle cx="63.58" cy="151.42" r="9.38"/>
	<ellipse cx="65.34" cy="198.86" rx="30.58" ry="18.9"/>
	<circle cx="91.46" cy="176" r="16.38"/>
	<ellipse cx="61.55" cy="181.36" rx="20.31" ry="13.04"/>
	<circle cx="66.93" cy="225.86" r="12.73"/>
	<ellipse cx="83.17" cy="220.56" rx="17.83" ry="21.7"/>
	<circle cx="101.2" cy="207.17" r="19.34"/>
	<ellipse cx="47.15" cy="222.88" rx="9.27" ry="15.71"/>
	<ellipse cx="111.66" cy="228.11" rx="17.32" ry="14.14"/>
	<circle cx="119.76" cy="203.28" r="18.76"/>
	<ellipse cx="75.74" cy="237.43" rx="25.46" ry="22.13"/>
	<ellipse cx="111.21" cy="259.01" rx="31.55" ry="26.01"/>
	<circle cx="141.7" cy="290.7" r="19.78"/>
	<ellipse cx="133.42" cy="220.35" rx="13.66" ry="17.07"/>
	<ellipse cx="135.86" cy="199.72" rx="16.23" ry="10.46"/>
	<circle cx="41.4" cy="250.75" r="22.48"/>
	<circle cx="50.27" cy="273.22" r="22.48"/>
	<circle cx="116.16" cy="282.42" r="22.48"/>
	<circle cx="91.46" cy="282.24" r="22.48"/>
	<circle cx="75.08" cy="259.76" r="22.48"/>
	<circle cx="65.51" cy="228.11" r="22.48"/>
	<circle cx="281.62" cy="274.04" r="0.82"/>
	<circle cx="50.6" cy="273.44" r="22.48"/>
	<circle cx="50.6" cy="273.44" r="22.48"/>
	<circle cx="50.6" cy="273.44" r="22.48"/>
	<circle cx="50.6" cy="273.44" r="22.48"/>
	<circle cx="91.46" cy="309.09" r="22.48"/>
	<circle cx="50.6" cy="273.44" r="22.48"/>
	<circle cx="27.8" cy="208.28" r="22.48"/>
	<circle cx="29.66" cy="246.07" r="22.48"/>
	<circle cx="62.12" cy="310.48" r="22.48"/>
	<circle cx="68.98" cy="290.7" r="22.48"/>
	<circle cx="50.6" cy="273.44" r="22.48"/>
	<circle cx="50.6" cy="273.44" r="22.48"/>
	<circle cx="50.6" cy="273.44" r="22.48"/>
	<circle cx="50.6" cy="273.44" r="22.48"/>
	<circle cx="50.6" cy="273.44" r="22.48"/>
	<circle cx="34.76" cy="280.54" r="22.48"/>
	<circle cx="37.88" cy="173.98" r="22.48"/>
	<circle cx="179.11" cy="167.33" r="7.7"/>
	<circle cx="151.19" cy="221.62" r="15.8"/>
	<ellipse cx="131.8" cy="236.56" rx="15.28" ry="9.51"/>
	<ellipse cx="145.42" cy="258.56" rx="20.66" ry="16.31"/>
	<ellipse cx="146.24" cy="236.1" rx="10.85" ry="14.48"/>
	<circle cx="157.25" cy="281.09" r="10.17"/>
	<circle cx="126.38" cy="311.22" r="15.34"/>
	<circle cx="149.25" cy="319.33" r="12.23"/>
	<circle cx="164.73" cy="322.52" r="10.43"/>
	<circle cx="123.41" cy="330.59" r="13.77"/>
	<circle cx="100.79" cy="328.23" r="21.13"/>
	<circle cx="157.57" cy="348.01" r="7.97"/>
	<circle cx="175.25" cy="339.57" r="3.85"/>
	<circle cx="63.12" cy="384.75" r="5.87"/>
	<circle cx="36.35" cy="337.28" r="6.69"/>
	<circle cx="22.18" cy="307.97" r="3.26"/>
	<circle cx="466.71" cy="153.06" r="12.62"/>
	<ellipse cx="470.89" cy="192.13" rx="15.31" ry="11.15"/>
	<ellipse cx="486.83" cy="214.9" rx="15.93" ry="12.15"/>
	<circle cx="482.18" cy="199.04" r="16.26"/>
	<circle cx="485.14" cy="237.67" r="13.3"/>
	<circle cx="479.17" cy="276.41" r="23.59"/>
	<circle cx="454.01" cy="273.97" r="14.03"/>
	<circle cx="418.36" cy="289.95" r="14.02"/>
	<ellipse cx="463.45" cy="293.82" rx="12.67" ry="17.41"/>
	<ellipse cx="494.12" cy="257.57" rx="18" ry="13.35"/>
	<circle cx="470.69" cy="210.52" r="7.24"/>
	<ellipse cx="485.4" cy="179.91" rx="17.36" ry="12.22"/>
	<ellipse cx="477.52" cy="248.8" rx="1.4" ry="8.77"/>
	<circle cx="476.26" cy="166.38" r="14.98"/>
	<circle cx="493.71" cy="184.22" r="14.98"/>
	<circle cx="506.22" cy="205.02" r="14.98"/>
	<circle cx="486.83" cy="298.11" r="14.98"/>
	<circle cx="443.24" cy="300" r="14.98"/>
	<circle cx="497.16" cy="246.07" r="14.98"/>
	<circle cx="502.31" cy="226.52" r="14.98"/>
	<circle cx="494.12" cy="169.24" r="14.98"/>
	<circle cx="482.18" cy="151.4" r="14.98"/>
	<circle cx="472.31" cy="133.4" r="14.98"/>
	<ellipse cx="420.38" cy="308.63" rx="21.51" ry="17.93"/>
	<circle cx="454.64" cy="311.02" r="17.2"/>
	<circle cx="473.84" cy="301.49" r="13.49"/>
	<circle cx="504.25" cy="286.99" r="13.01"/>
	<circle cx="505.51" cy="264.62" r="11.79"/>
	<circle cx="450.44" cy="329.2" r="10.84"/>
	<circle cx="432.97" cy="324.68" r="12.6"/>
	<circle cx="420.35" cy="325.35" r="10.37"/>
	<circle cx="400.79" cy="319.89" r="9.31"/>
	<circle cx="438.1" cy="349.49" r="5.13"/>
	<circle cx="408.56" cy="343.79" r="4.22"/>
	<circle cx="387.63" cy="359.82" r="5.19"/>
	<circle cx="535.18" cy="172.26" r="5.06"/>
	<circle cx="488.84" cy="86.29" r="3.7"/>
	<circle cx="509.65" cy="51.68" r="5.4"/>
	<circle cx="439.35" cy="75.27" r="3.88"/>
	<circle class="st2" cx="164.28" cy="299" r="13.08"/>
	<ellipse class="st2" cx="408.46" cy="304.4" rx="11.89" ry="10.58"/>
	<path class="st15" d="M329.69,432.69h-85.62c-10.39,0-18.82-8.43-18.82-18.82v-6.32c0-10.39,10.29-24.75,18.82-18.82
		c21.14,14.7,55.83,14.7,85.62,0c9.32-4.6,18.82,8.43,18.82,18.82v6.32C348.51,424.27,340.09,432.69,329.69,432.69z"/>
	<path class="st2" d="M410.21,600l-238.49,0c-46.6,0-34.79-37.68-34.79-84.16c0,0,0,0,0,0c0-46.48,37.77-84.16,84.37-84.16h131.84
		c46.6,0,84.37,37.68,84.37,84.16l0,0C439.93,562.83,455.02,600.24,410.21,600z"/>
	<path class="st2" d="M330.25,437.68h-86.08c-10.45,0-18.92-8.43-18.92-18.82v-6.32c0-10.39,10.34-24.75,18.92-18.82
		c21.25,14.7,56.13,14.7,86.08,0c9.37-4.6,18.92,8.43,18.92,18.82v6.32C349.18,429.25,340.7,437.68,330.25,437.68z"/>
	<path class="st16" d="M225.92,427.25c0,0,44.28,64.71,60.58,64.71"/>
	<path class="st17" d="M347.85,431.68c0,0-47.28,60.28-61.35,60.28"/>
	<g>
		<g>
			<path d="M263.09,450.45c-0.01,0.02-0.02,0.03-0.03,0.05c-0.11,0.21-0.2,0.43-0.27,0.65c-0.01,0.02-0.01,0.04-0.01,0.06
				c0.02-0.11-0.1,0.5-0.09,0.72c0.01,0.24,0.05,0.48,0.09,0.72c0,0.02,0.01,0.04,0.01,0.06c0.07,0.22,0.18,0.44,0.27,0.65
				c0.01,0.02,0.02,0.04,0.03,0.06c0.01,0.02,0.02,0.03,0.03,0.05c0.11,0.15,0.28,0.36,0.4,0.51c0,0,0.01,0.01,0.01,0.01
				c0.01,0.01,0.02,0.02,0.02,0.03c0.01,0.01,0.03,0.03,0.04,0.04c0.17,0.15,0.36,0.29,0.55,0.43c0.02,0.01,0.03,0.02,0.05,0.03
				c0.19,0.11,0.59,0.25,0.65,0.28c0.02,0.01,0.04,0.01,0.06,0.02c0.22,0.06,0.75,0.1,0.72,0.1c0.02,0,0.04,0,0.06,0
				c0.24-0.01,0.49-0.04,0.72-0.1c0.01,0,0.02-0.01,0.03-0.01c0,0,0.01,0,0.01,0c0.1-0.04,0.2-0.08,0.3-0.13
				c0.1-0.04,0.2-0.09,0.3-0.13c0.02-0.01,0.04-0.02,0.07-0.04c0.29-0.16,0.53-0.37,0.7-0.64c0.22-0.24,0.37-0.52,0.45-0.85
				c0.1-0.33,0.12-0.66,0.04-1c-0.02-0.33-0.11-0.64-0.3-0.93c-0.13-0.17-0.26-0.34-0.39-0.51c-0.31-0.31-0.68-0.52-1.1-0.64
				c-0.22-0.03-0.44-0.06-0.66-0.09c-0.45,0-0.87,0.12-1.26,0.34c-0.02,0.02-0.05,0.03-0.07,0.04c0.2-0.08,0.4-0.17,0.6-0.25
				c-0.03,0.01-0.05,0.02-0.08,0.02c0.22-0.03,0.44-0.06,0.66-0.09c-0.03,0-0.06,0-0.1,0c0.22,0.03,0.44,0.06,0.66,0.09
				c-0.04-0.01-0.08-0.02-0.11-0.03c0.2,0.08,0.4,0.17,0.6,0.25c-0.04-0.02-0.08-0.04-0.12-0.07c0.17,0.13,0.34,0.26,0.51,0.39
				c-0.04-0.03-0.08-0.07-0.11-0.11c0.13,0.17,0.26,0.34,0.39,0.51c-0.03-0.04-0.05-0.08-0.07-0.12c0.08,0.2,0.17,0.4,0.25,0.6
				c-0.02-0.04-0.03-0.07-0.03-0.11c0.03,0.22,0.06,0.44,0.09,0.66c0-0.03,0-0.06,0-0.1c-0.03,0.22-0.06,0.44-0.09,0.66
				c0-0.03,0.01-0.06,0.02-0.09c-0.08,0.2-0.17,0.4-0.25,0.6c0.01-0.03,0.03-0.05,0.05-0.08c0.18-0.29,0.28-0.6,0.3-0.93
				c0.07-0.33,0.06-0.66-0.04-1c-0.08-0.33-0.23-0.61-0.45-0.85c-0.18-0.27-0.41-0.49-0.7-0.64c-0.2-0.08-0.4-0.17-0.6-0.25
				c-0.44-0.12-0.89-0.12-1.33,0c-0.2,0.08-0.4,0.17-0.6,0.25C263.61,449.78,263.32,450.08,263.09,450.45L263.09,450.45z"/>
		</g>
	</g>
	<g>
		<g>
			<path d="M268.76,457.7c9.65,0,9.67-15,0-15C259.11,442.7,259.09,457.7,268.76,457.7L268.76,457.7z"/>
		</g>
	</g>
	<g>
		<g>
			<path d="M267.55,456.03c0.48-0.24,0.96-0.49,1.43-0.73c0.87-0.47,1.58-1.12,2.1-1.93c0.66-0.72,1.11-1.57,1.34-2.55
				c0.31-1,0.36-1.99,0.13-2.99c-0.05-1-0.34-1.93-0.89-2.79c-0.39-0.51-0.78-1.01-1.17-1.52c-0.94-0.93-2.04-1.57-3.31-1.93
				c-0.66-0.09-1.33-0.18-1.99-0.27c-1.35,0-2.62,0.35-3.79,1.02c-0.48,0.24-0.96,0.49-1.43,0.73c-0.87,0.47-1.58,1.12-2.1,1.93
				c-0.66,0.72-1.11,1.57-1.34,2.55c-0.31,1-0.36,1.99-0.13,2.99c0.05,1,0.34,1.93,0.89,2.79c0.39,0.51,0.78,1.01,1.17,1.52
				c0.94,0.93,2.04,1.57,3.31,1.93c0.66,0.09,1.33,0.18,1.99,0.27C265.11,457.05,266.38,456.71,267.55,456.03L267.55,456.03z"/>
		</g>
	</g>
	<g>
		<g>
			<path d="M266.6,457.7c9.65,0,9.67-15,0-15C256.95,442.7,256.93,457.7,266.6,457.7L266.6,457.7z"/>
		</g>
	</g>
	<g>
		<path class="st18" d="M263,446.6"/>
		<g>
			<path class="st18" d="M263,454.1c9.65,0,9.67-15,0-15C253.35,439.1,253.33,454.1,263,454.1L263,454.1z"/>
		</g>
	</g>
	<g>
		<g>
			<path class="st18" d="M303.32,454.1c9.65,0,9.67-15,0-15C293.67,439.1,293.65,454.1,303.32,454.1L303.32,454.1z"/>
		</g>
	</g>
	<path class="st19" d="M263,446.6c-5.64,1.42,29.37,103.15,1.48,103.15"/>
	<g>
		<g>
			<path class="st18" d="M263,557.06c9.65,0,9.67-15,0-15C253.35,542.06,253.33,557.06,263,557.06L263,557.06z"/>
		</g>
	</g>
	<path class="st19" d="M303.32,446.6c0,0-15.06,102.96-5.85,127.53"/>
	<g>
		<g>
			<path class="st18" d="M297.56,582.26c9.65,0,9.67-15,0-15C287.91,567.26,287.89,582.26,297.56,582.26L297.56,582.26z"/>
		</g>
	</g>
	<circle class="st1" cx="111.04" cy="404.33" r="6"/>
	<circle class="st1" cx="132.9" cy="444.2" r="6.52"/>
	<circle class="st1" cx="22.53" cy="468.95" r="7.13"/>
	<circle class="st1" cx="547.94" cy="451.9" r="7.7"/>
	<circle class="st1" cx="499.38" cy="416.86" r="6.84"/>
	<circle class="st1" cx="583.02" cy="344.7" r="4.66"/>
	<circle class="st1" cx="584.95" cy="507.64" r="2.72"/>
	<circle class="st1" cx="583.02" cy="537.66" r="4.66"/>
	<circle class="st1" cx="488.15" cy="510.89" r="5.97"/>
	<circle class="st1" cx="113.94" cy="554.53" r="6.6"/>
	<circle class="st1" cx="59.74" cy="530.64" r="3.39"/>
</g>
</svg>
